<?xml version="1.0" encoding="utf-8"?>
<!-- Generator: Adobe Illustrator 19.1.0, SVG Export Plug-In . SVG Version: 6.00 Build 0)  -->
<svg version="1.1" id="Layer_1" xmlns="http://www.w3.org/2000/svg" xmlns:xlink="http://www.w3.org/1999/xlink" x="0px" y="0px"
	 viewBox="0 0 916 916" style="enable-background:new 0 0 916 916;" xml:space="preserve">
<g>
	<g>
		<g>
			<path style="fill:#ADADC0;" d="M458,373.4c-93.3,0-169.2-75.9-169.2-169.2S364.7,34.9,458,34.9s169.2,75.9,169.2,169.2
				S551.3,373.4,458,373.4z M458,88.3c-63.9,0-115.8,51.9-115.8,115.8S394.1,319.9,458,319.9S573.8,268,573.8,204.1
				S521.9,88.3,458,88.3z"/>
		</g>
	</g>
	<g>
		<rect x="66.1" y="382.3" style="fill:#E7EBEF;" width="783.9" height="498.8"/>
	</g>
	<g>
		<g>
			<rect x="30.4" y="204.1" style="fill:#CFDFF0;" width="855.1" height="356.3"/>
		</g>
	</g>
	<g>
		<g>
			<rect x="636.2" y="560.4" style="fill:#FFFFFF;" width="106.9" height="17.8"/>
		</g>
		<g>
			<rect x="173" y="560.4" style="fill:#FFFFFF;" width="106.9" height="17.8"/>
		</g>
	</g>
	<g>
		<g>
			<path style="fill:#F1F2F2;" d="M636.2,560.4c0-29.5,23.9-53.4,53.4-53.4c29.5,0,53.4,23.9,53.4,53.4H636.2z"/>
		</g>
	</g>
	<g>
		<g>
			<path style="fill:#F1F2F2;" d="M173,560.4c0-29.5,23.9-53.4,53.4-53.4c29.5,0,53.4,23.9,53.4,53.4H173z"/>
		</g>
	</g>
</g>
</svg>
