<?xml version="1.0" encoding="utf-8"?>
<!-- Generator: Adobe Illustrator 19.1.0, SVG Export Plug-In . SVG Version: 6.00 Build 0)  -->
<svg version="1.1" id="Layer_1" xmlns="http://www.w3.org/2000/svg" xmlns:xlink="http://www.w3.org/1999/xlink" x="0px" y="0px"
	 viewBox="0 0 916 916" style="enable-background:new 0 0 916 916;" xml:space="preserve">
<g>
	<g>
		<path style="fill:#ADADC0;" d="M692.1,398.7c0,0-19.4-6.8-32,3.1c0,0-20.9,17.9-27,57.5c0,0-7.1,45-37.7,30.8
			c0,0,25.3,52.3,63.8,60.4l55.3,12.2l29.2-15.5c0,0,40.6-26.4,42.9-37.4c2.3-11-33.1-103.8-52-113.3
			C715.8,386.9,704.9,387,692.1,398.7z"/>
		<path style="fill:#CFDFF0;" d="M653.5,454.5c0,0-34.4,58.6,20.2,99.3l8.8,32.5l18.5,14.2l22-22.3l-2.5-26.4
			c0,0,18.7-20.2,20.2-24.7c1.6-4.5-30.6-19.6-28.4-37.8c0,0,17.6-11.1,17.9-16.3c0,0-30.9-8.1-38.3-30.9L653.5,454.5z"/>
		<path style="fill:#D8D7E0;" d="M612.2,1069.8h195.1V873.6c0,0-1-80.6-57.2-99.7h-96.5c0,0-37.9,31.4-42.1,71.4
			c-0.2,1.8-0.3,3.6-0.4,5.5C610,893.2,612.2,1069.8,612.2,1069.8z"/>
		<polygon style="fill:#CFDFF0;" points="588.9,679.4 581.2,713 602.1,747.7 618.3,692.3 		"/>
		<path style="fill:#E7EBEF;" d="M653.6,773.9l-25.9-103.8l-5.2,26.2l-45-11.2c0,0,4.1-72.5,61.3-98.5c0,0,56.4-35,139,3.4
			c0,0,55.6,14.7,45,112l-44.1-2.5l-1.6-14.4l-26.9,88.8H653.6z"/>
		<polygon style="fill:#F0EFEF;" points="694.4,579.8 664.2,607.6 664.2,576.6 721.1,573.2 721.1,607.6 		"/>
		<polygon style="fill:#F1F5F9;" points="560.9,702.5 659,689.4 727.7,790.2 633.4,800.1 608.9,769.5 		"/>
		<path style="fill:#CFDFF0;" d="M577.6,725.7l-11.9,60.8c0,0-1.2,18,18,17.2l82.6-22.5c0,0,17.2-6.5,9-24.1c0,0-18.8-8.2-35.1,4.1
			l-43.7,12.7l3.6-16.8L577.6,725.7z"/>
		<path style="fill:#CFDFF0;" d="M784.9,699.9v34.8c0,0-49.1-57-63.7-61.7c0,0-15.8-12.7-34.8,0c0,0-9,15.1,6.4,28
			c0,0,17.6,7.5,21.4,8.6l45.8,55.2c0,0,22.3,26.6,39.2,16.8c0,0,26.2-15.6,20.7-79.7L784.9,699.9z"/>
	</g>
	<g>
		<polygon style="fill:#CFDFF0;" points="408.5,828.7 391.3,821.1 379.3,789.1 401.3,763.2 418.5,789.1 408.5,806.3 		"/>
		<polygon style="fill:#CFDFF0;" points="312.4,366.4 344.9,452 316.5,460.1 283.6,527.8 218.6,502.4 214.8,438.6 219.6,361 		"/>
		<path style="fill:#ADADC0;" d="M238,377.2c0,0,85.9-4.3,91.7-10.1c5.8-5.8,2-21.3-2.3-24.4c-4.3-3.1-109.9-4.7-118.5,4.9
			c-8.6,9.6-12.2,71.9,5.5,96.9C214.4,444.4,237.4,405.4,238,377.2z"/>
		<polygon style="fill:#F0EFEF;" points="127.7,560.8 215.3,502.4 299,502.4 382,531.6 465,673 419.1,793.3 390.8,770.9 
			413.5,678.8 378.8,625.6 377.8,799.3 178.7,799.3 143.8,635 112.4,704.5 154.5,770.9 135.6,799.3 52.4,706.6 		"/>
		<polygon style="fill:#24899C;" points="213,1213.2 237,837.2 298.3,837.2 298.3,1213.2 364.6,1213.2 364.6,1202.1 323.5,1187.9 
			377.8,799.3 178.7,799.3 187.7,1186.3 146.6,1205.3 146.6,1213.2 		"/>
		<polygon style="fill:#CFDFF0;" points="146.6,843 165.6,834.6 178.7,799.3 154.5,770.9 135.6,799.3 146.6,818.3 		"/>
		<polygon style="fill:#E6E7E8;" points="215.3,502.4 226.6,541.8 254.6,509.2 288.8,541.8 299,502.4 		"/>
		<polygon style="fill:#D1D3D4;" points="254,547.6 239.1,527.3 254.6,509.2 272.1,525.9 261.4,547.6 288.8,660.3 269.8,688.7 
			239.1,661.1 		"/>
	</g>
	<g>
		<path style="fill:#C6D6E6;" d="M504.7,278.2H236.2c-9.1,0-16.5-7.4-16.5-16.5V122.9c0-9.1,7.4-16.5,16.5-16.5h268.5
			c9.1,0,16.5,7.4,16.5,16.5v138.7C521.2,270.8,513.8,278.2,504.7,278.2z"/>
	</g>
	<polygon style="fill:#C6D6E6;" points="312.9,263 267.2,307.3 267.2,268.4 	"/>
	<g>
		<polygon style="fill:#CFDFF0;" points="644.5,326.3 698.2,378.4 698.2,332.8 		"/>
		<path style="fill:#CFDFF0;" d="M734.8,340.4H446.8c-9.1,0-16.5-7.4-16.5-16.5V174.1c0-9.1,7.4-16.5,16.5-16.5h287.9
			c9.1,0,16.5,7.4,16.5,16.5v149.8C751.3,333,743.9,340.4,734.8,340.4z"/>
	</g>
</g>
</svg>
