<?xml version="1.0" encoding="utf-8"?>
<!-- Generator: Adobe Illustrator 19.1.0, SVG Export Plug-In . SVG Version: 6.00 Build 0)  -->
<svg version="1.1" id="Layer_1" xmlns="http://www.w3.org/2000/svg" xmlns:xlink="http://www.w3.org/1999/xlink" x="0px" y="0px"
	 viewBox="0 0 916 916" style="enable-background:new 0 0 916 916;" xml:space="preserve">
<g>
	<g>
		<g>
			<g>
				<rect x="133" y="112" style="fill:#F1F2F2;" width="564.9" height="734.4"/>
			</g>
		</g>
		<g>
			<g>
				<rect x="133" y="793.9" style="fill:#E7EBEF;" width="564.9" height="52.5"/>
			</g>
		</g>
		<g>
			<g>
				<g>
					<g>
						<path style="fill:#ADADC0;" d="M584.9,154.4c-7.8,0-14.1-6.3-14.1-14.1V83.7c0-7.8,6.3-14.1,14.1-14.1S599,75.9,599,83.7v56.5
							C599,148,592.7,154.4,584.9,154.4z"/>
					</g>
				</g>
			</g>
			<g>
				<g>
					<g>
						<path style="fill:#ADADC0;" d="M471.9,154.4c-7.8,0-14.1-6.3-14.1-14.1V83.7c0-7.8,6.3-14.1,14.1-14.1
							c7.8,0,14.1,6.3,14.1,14.1v56.5C486.1,148,479.7,154.4,471.9,154.4z"/>
					</g>
				</g>
			</g>
			<g>
				<g>
					<g>
						<path style="fill:#ADADC0;" d="M358.9,154.4c-7.8,0-14.1-6.3-14.1-14.1V83.7c0-7.8,6.3-14.1,14.1-14.1s14.1,6.3,14.1,14.1
							v56.5C373.1,148,366.7,154.4,358.9,154.4z"/>
					</g>
				</g>
			</g>
			<g>
				<g>
					<g>
						<path style="fill:#ADADC0;" d="M246,154.4c-7.8,0-14.1-6.3-14.1-14.1V83.7c0-7.8,6.3-14.1,14.1-14.1c7.8,0,14.1,6.3,14.1,14.1
							v56.5C260.1,148,253.8,154.4,246,154.4z"/>
					</g>
				</g>
			</g>
		</g>
		<g>
			<g>
				<g>
					<g>
						<rect x="189.5" y="267.3" style="fill:#CFDFF0;" width="451.9" height="28.2"/>
					</g>
				</g>
				<g>
					<g>
						<rect x="189.5" y="323.8" style="fill:#CFDFF0;" width="339" height="28.2"/>
					</g>
				</g>
			</g>
			<g>
				<g>
					<g>
						<rect x="189.5" y="380.3" style="fill:#CFDFF0;" width="451.9" height="28.2"/>
					</g>
				</g>
				<g>
					<g>
						<rect x="189.5" y="436.8" style="fill:#CFDFF0;" width="226" height="28.2"/>
					</g>
				</g>
			</g>
		</g>
	</g>
	<g>
		<g>
			<g>
				<g>
					<path style="fill:#E7EBEF;" d="M781.4,783.8c6.6,24.3-7.8,49.3-32.1,55.9c-24.3,6.6-49.3-7.8-55.9-32.1
						c-6.6-24.3,7.8-49.4,32.1-55.9C749.8,745.1,774.9,759.5,781.4,783.8z"/>
				</g>
			</g>
		</g>
		<g>
			<g>
				<g>
					<g>
						<polygon style="fill:#ADADC0;" points="582.8,223.5 580,271.4 609.4,263.5 						"/>
					</g>
				</g>
			</g>
			<g>
				<g>
					<g>
						<polygon style="fill:#FFFFFF;" points="580,271.4 574.5,367.4 662.5,343.6 609.4,263.5 						"/>
					</g>
				</g>
			</g>
		</g>
		<g>
			<g>
				<g>
					<g>
						<polygon style="fill:#C3D3E3;" points="596.5,361.5 574.5,367.4 693.4,807.6 715.4,801.7 737.4,795.7 618.5,355.5 						"/>
					</g>
				</g>
			</g>
			<g>
				<g>
					<g>
						<polygon style="fill:#CFDFF0;" points="640.5,349.6 618.5,355.5 737.4,795.7 759.4,789.8 781.4,783.8 662.5,343.6 						"/>
					</g>
				</g>
			</g>
		</g>
	</g>
</g>
</svg>
