<?xml version="1.0" standalone="no"?>
<!DOCTYPE svg PUBLIC "-//W3C//DTD SVG 20010904//EN"
 "http://www.w3.org/TR/2001/REC-SVG-20010904/DTD/svg10.dtd">
<svg version="1.0" xmlns="http://www.w3.org/2000/svg"
 width="435.000000pt" height="435.000000pt" viewBox="0 0 435.000000 435.000000"
 preserveAspectRatio="xMidYMid meet">
<metadata>
Created by potrace 1.11, written by Peter Selinger 2001-2013
</metadata>
<g transform="translate(0.000000,435.000000) scale(0.100000,-0.100000)"
fill="#000000" stroke="none">
<path d="M3090 3788 c-24 -7 -77 -52 -180 -154 l-145 -143 374 -368 c206 -202
379 -371 385 -375 6 -3 74 55 157 135 132 129 147 147 158 191 9 38 9 62 1
100 -11 49 -23 62 -283 320 -170 167 -287 275 -312 287 -43 20 -100 23 -155 7z"/>
<path d="M1669 2415 c-470 -460 -859 -847 -865 -859 -6 -11 -14 -35 -17 -53
-6 -31 4 -42 344 -376 l351 -345 34 8 c27 6 74 47 202 172 92 89 483 471 870
847 386 376 702 685 702 687 0 3 -443 439 -651 642 l-117 114 -853 -837z"/>
<path d="M562 727 c-28 -105 -49 -193 -47 -196 4 -3 337 79 384 95 10 3 -29
49 -120 140 -74 74 -141 139 -150 144 -14 8 -23 -18 -67 -183z"/>
</g>
</svg>
